<svg xmlns="http://www.w3.org/2000/svg" width="600" height="600" viewBox="0 0 600 600"><title>Artboard 1</title><rect width="600" height="600" fill="none"/><polygon points="217.14 383 261 339 355 500 217.14 500 217.14 383" fill="#fc425d" fill-rule="evenodd"/><polygon points="217.14 100 322.1 100 217.14 205.95 217.14 100" fill="#fc425d" fill-rule="evenodd"/><polygon points="353.63 246.66 500 100 500 500 353.63 246.66" fill="#fc425d" fill-rule="evenodd"/><path d="M199.16,159.89H100.69V146.53h43.83l-43.83-27.14V101.32l38.38,25L199.16,100v17.35l-46.27,18.31,16.51,10.87h29.76Z" fill="#142e42"/><path d="M118.15,189.89H100.69V175.13h17.46Zm81,0H127.82V175.13h71.34Z" fill="#142e42"/><path d="M168,255.08,166.16,242c12.59-1.47,19.88-6.29,19.88-14.46,0-4.05-2.29-7.24-4.86-9.56a13.75,13.75,0,0,0-9.57-3.48,12.32,12.32,0,0,0-5.71,1.22,9.77,9.77,0,0,0-3.86,3.7q-1.5,2.47-5.06,12Q153.83,240,150.14,244a25.89,25.89,0,0,1-9.7,6.33,35.3,35.3,0,0,1-12.92,2.34,33.82,33.82,0,0,1-14.5-3,22,22,0,0,1-9.73-8.31A24.41,24.41,0,0,1,100,228.24q0-11.7,7.73-18.28t22.1-7l.87,13.42q-7.92.89-11.08,3.81t-3.16,8.34q0,5.42,2.74,8.34a9,9,0,0,0,6.83,2.93,9.33,9.33,0,0,0,6.77-2.66q2.74-2.66,6-12.21,3.56-10.09,7.49-14.6a25,25,0,0,1,10.14-6.87,42.43,42.43,0,0,1,15.08-2.37q12.82,0,21.55,6.49c5.82,4.32,5.73,12.09,5.73,21.29C198.83,245.19,190.57,253.24,168,255.08Z" fill="#142e42"/><path d="M168,316l-1.88-13.09Q185,300.65,185,288.39q0-6.08-3.86-9.56a13.76,13.76,0,0,0-9.57-3.47,12.32,12.32,0,0,0-5.71,1.21,9.77,9.77,0,0,0-3.86,3.7q-1.51,2.49-5.06,12-3.15,8.56-6.84,12.54a26,26,0,0,1-9.7,6.32,35.3,35.3,0,0,1-12.92,2.35,34,34,0,0,1-14.5-3,22.06,22.06,0,0,1-9.73-8.32A24.37,24.37,0,0,1,100,289.11q0-11.72,7.73-18.29t22.09-6.95l.88,13.42q-7.93.88-11.09,3.81t-3.15,8.34q0,5.4,2.74,8.34A9,9,0,0,0,126,300.7a9.36,9.36,0,0,0,6.77-2.65q2.74-2.66,6-12.21,3.57-10.11,7.5-14.6a25.07,25.07,0,0,1,10.14-6.88A42.37,42.37,0,0,1,171.54,262q12.84,0,21.56,6.49c5.82,4.33,5.73,12.09,5.73,21.3C198.83,306.05,190.57,314.11,168,316Z" fill="#142e42"/><path d="M199.15,317.62v14.53L176.85,338v26.57l22.3,5.49v14.25l-98.47-25.85v-14.2Zm-39,24.66-36.55,9.17,36.54,9Z" fill="#142e42"/><path d="M199.15,431.81H100.48V417.45h83V388.09h15.66Z" fill="#142e42"/><path d="M199.14,500H100.67V486.63H144.5l-43.83-27.14V441.43l38.38,25,60.09-26.35v17.34l-46.28,18.32,16.52,10.86h29.76Z" fill="#142e42"/></svg>