<?xml version="1.0" encoding="utf-8"?>
<!-- Generator: Adobe Illustrator 23.0.1, SVG Export Plug-In . SVG Version: 6.00 Build 0)  -->
<svg version="1.1" id="Layer_1" xmlns="http://www.w3.org/2000/svg" xmlns:xlink="http://www.w3.org/1999/xlink" x="0px" y="0px"
	 width="48px" height="48px" viewBox="0 0 48 48" enable-background="new 0 0 48 48" xml:space="preserve">
<g>
	<rect fill="none" width="48" height="48"/>
	<g>
		<path fill="#B3B3B3" d="M8,13c-0.34,0-0.67-0.17-0.86-0.49c-0.28-0.47-0.12-1.09,0.35-1.37l12.16-7.21
			c0.48-0.28,1.09-0.12,1.37,0.35c0.28,0.47,0.12,1.09-0.35,1.37L8.51,12.86C8.35,12.96,8.17,13,8,13z"/>
		<path fill="#B3B3B3" d="M36,13c-0.17,0-0.35-0.04-0.51-0.14L23.33,5.65c-0.47-0.28-0.63-0.9-0.35-1.37
			c0.28-0.48,0.9-0.63,1.37-0.35l12.16,7.21c0.47,0.28,0.63,0.9,0.35,1.37C36.67,12.83,36.34,13,36,13z"/>
		<path fill="#A67C52" d="M42,41H2c-0.55,0-1-0.45-1-1V12c0-0.55,0.45-1,1-1h40c0.55,0,1,0.45,1,1v28C43,40.55,42.55,41,42,41z"/>
		<circle fill="#A67C52" cx="22" cy="4" r="3"/>
		<rect x="4" y="14" fill="#E6E6E6" width="36" height="24"/>
		<path fill="#B3B3B3" d="M26,23H10c-0.55,0-1-0.45-1-1s0.45-1,1-1h16c0.55,0,1,0.45,1,1S26.55,23,26,23z"/>
		<path fill="#B3B3B3" d="M22,31H10c-0.55,0-1-0.45-1-1s0.45-1,1-1h12c0.55,0,1,0.45,1,1S22.55,31,22,31z"/>
		<polygon fill="#EFD358" points="44,30.25 44,47 38,44 32,47 32,30.25 		"/>
		<path fill="#E86C60" d="M38,16c-4.96,0-9,4.04-9,9s4.04,9,9,9s9-4.04,9-9S42.96,16,38,16z"/>
		<circle fill="#C94949" cx="38" cy="25" r="4"/>
	</g>
</g>
</svg>
