<?xml version="1.0" encoding="utf-8"?>
<!-- Generator: Adobe Illustrator 23.0.1, SVG Export Plug-In . SVG Version: 6.00 Build 0)  -->
<svg version="1.1" id="Layer_1" xmlns="http://www.w3.org/2000/svg" xmlns:xlink="http://www.w3.org/1999/xlink" x="0px" y="0px"
	 width="32px" height="32px" viewBox="0 0 32 32" enable-background="new 0 0 32 32" xml:space="preserve">
<g>
	<rect fill="none" width="32" height="32"/>
	<path fill="#FC425D" d="M23,9c-4.97,0.01-8.99,4.03-9,9c0,4.71,7.46,11.92,8.31,12.73c0.39,0.37,0.99,0.37,1.38,0
		C24.54,29.92,32,22.71,32,18C31.99,13.03,27.97,9.01,23,9z M23,22c-2.21,0-4-1.79-4-4s1.79-4,4-4s4,1.79,4,4S25.21,22,23,22z"/>
	<path fill="#FC425D" d="M7,0C3.14,0,0,3.14,0,7c0,3.64,5.67,9.11,6.31,9.73c0.39,0.37,0.99,0.37,1.38,0C8.33,16.11,14,10.64,14,7
		C14,3.14,10.86,0,7,0z M7,10c-1.66,0-3-1.34-3-3s1.34-3,3-3s3,1.34,3,3S8.66,10,7,10z"/>
	<path fill="#FC425D" d="M15,29c-4.97-0.01-8.99-4.03-9-9c0-0.55,0.45-1,1-1s1,0.45,1,1c0,3.86,3.14,7,7,7c0.55,0,1,0.45,1,1
		S15.55,29,15,29z"/>
</g>
</svg>
