<?xml version="1.0" encoding="utf-8"?>
<!-- Generator: Adobe Illustrator 23.0.1, SVG Export Plug-In . SVG Version: 6.00 Build 0)  -->
<svg version="1.1" id="Layer_1" xmlns="http://www.w3.org/2000/svg" xmlns:xlink="http://www.w3.org/1999/xlink" x="0px" y="0px"
	 width="32px" height="32px" viewBox="0 0 32 32" enable-background="new 0 0 32 32" xml:space="preserve">
<g>
	<rect fill="none" width="32" height="32"/>
	
		<ellipse fill="none" stroke="#AFBAC4" stroke-width="2" stroke-linecap="square" stroke-miterlimit="10" cx="21" cy="21" rx="2" ry="2"/>
	<path fill="none" stroke="#AFBAC4" stroke-width="2" stroke-linecap="square" stroke-miterlimit="10" d="M30.14,20.24l-9.9,9.9
		c-0.78,0.78-2.05,0.78-2.83,0L1.86,14.59c-0.78-0.78-0.78-2.05,0-2.83l9.9-9.9c0.78-0.78,2.05-0.78,2.83,0l15.56,15.56
		C30.92,18.19,30.92,19.46,30.14,20.24z"/>
	<path fill="none" stroke="#AFBAC4" stroke-width="2" stroke-linecap="square" stroke-miterlimit="10" d="M9,31c-4.42,0-8-3.58-8-8"
		/>
	<path fill="none" stroke="#AFBAC4" stroke-width="2" stroke-linecap="square" stroke-miterlimit="10" d="M31,9c0-4.42-3.58-8-8-8"
		/>
</g>
</svg>
