<?xml version="1.0" encoding="utf-8"?>
<!-- Generator: Adobe Illustrator 23.0.1, SVG Export Plug-In . SVG Version: 6.00 Build 0)  -->
<svg version="1.1" id="Layer_1" xmlns="http://www.w3.org/2000/svg" xmlns:xlink="http://www.w3.org/1999/xlink" x="0px" y="0px"
	 width="48px" height="48px" viewBox="0 0 48 48" enable-background="new 0 0 48 48" xml:space="preserve">
<g>
	<rect fill="none" width="48" height="48"/>
	<g>
		<path fill="#7F7F7F" d="M13,43c-0.2,0,4.05-17.3,4.05-17.3c0.1-0.33,0.38-0.59,0.71-0.67c0.34-0.09,0.7,0.02,0.95,0.26l7,7
			c0.21,0.21,0.31,0.49,0.29,0.78c-0.02,0.29-0.17,0.55-0.4,0.73l-12,9C13.42,42.93,13.21,43,13,43z"/>
		<path fill="#E6E6E6" d="M35.99,45c-0.21,0-0.42-0.07-0.6-0.2L3.4,20.8c-0.29-0.22-0.44-0.57-0.39-0.93
			c0.05-0.36,0.28-0.66,0.62-0.8l40-16c0.34-0.13,0.73-0.08,1.01,0.16c0.28,0.23,0.41,0.6,0.34,0.96l-8.01,40
			c-0.07,0.34-0.3,0.62-0.62,0.74C36.23,44.98,36.11,45,35.99,45z"/>
		<path fill="#B3B3B3" d="M13,43c-0.05,0-0.11,0-0.16-0.01C12.36,42.91,12,42.49,12,42V27c0-0.32,0.15-0.61,0.4-0.8l31-23
			c0.42-0.32,1.02-0.25,1.36,0.16c0.34,0.4,0.31,1-0.07,1.37L17.2,31.15l-3.25,11.17C13.81,42.73,13.42,43,13,43z"/>
	</g>
</g>
</svg>
