<?xml version="1.0" encoding="utf-8"?>
<!-- Generator: Adobe Illustrator 23.0.1, SVG Export Plug-In . SVG Version: 6.00 Build 0)  -->
<svg version="1.1" id="Layer_1" xmlns="http://www.w3.org/2000/svg" xmlns:xlink="http://www.w3.org/1999/xlink" x="0px" y="0px"
	 width="32px" height="32px" viewBox="0 0 32 32" enable-background="new 0 0 32 32" xml:space="preserve">
<g>
	<rect x="0" fill="none" width="32" height="32"/>
	<path fill="#FC425D" d="M5.4,4.89c-2.82,2.8-4.41,6.62-4.4,10.6v0.02c0,8.27,6.7,14.98,14.97,14.99v-2C8.81,28.48,3,22.67,3,15.5
		v-0.02C3.01,8.31,8.83,2.5,16.01,2.51c3.45,0,6.75,1.38,9.18,3.82c2.44,2.43,3.81,5.73,3.8,9.18v0.02c0,3.1-1.11,6.09-3.14,8.44
		l-3.68-3.68l-2.2,11.22L31,29.1l-3.74-3.74c2.4-2.72,3.72-6.22,3.72-9.85V15.5c0-8.28-6.71-14.99-14.99-14.99
		C12.02,0.51,8.21,2.08,5.4,4.89z"/>
	<path fill="#FC425D" d="M16,6c-0.55,0-1,0.45-1,1v9c0,0.55,0.45,1,1,1h9c0.55,0,1-0.45,1-1c0-0.55-0.45-1-1-1h-8V7
		C17,6.45,16.55,6,16,6z"/>
</g>
</svg>
